<svg xmlns="http://www.w3.org/2000/svg" viewBox="0 0 360 118.1048">
  <g id="full-rgb">
    <g id="type">
      <path id="type_PathItem_" data-name="type &lt;PathItem&gt;" d="M15.1651,75.3947a18.7142,18.7142,0,0,0,7.4272,4.8384,29.7954,29.7954,0,0,0,10.45,1.705,39.3431,39.3431,0,0,0,8.9748-1.0146,33.2022,33.2022,0,0,0,7.5479-2.6713,55.7937,55.7937,0,0,0,5.0518-2.8706,33.8914,33.8914,0,0,0,3.4676-2.601,1.0707,1.0707,0,0,0,.3315-.5178L65.1306,48.844a1.0734,1.0734,0,0,0-1.0324-1.37h-23.88a1.0754,1.0754,0,0,0-1.0335.7791l-1.6787,5.8755a1.0745,1.0745,0,0,0,1.0335,1.37H54.069L50.1975,69.0124a22.6253,22.6253,0,0,1-13.63,4.44c-5.3141,0-9.5623-1.4752-12.627-4.3846-3.093-2.9341-4.5965-6.7632-4.5965-11.706a26.99,26.99,0,0,1,1.0912-7.2564A32.2736,32.2736,0,0,1,32.06,33.321a33.1426,33.1426,0,0,1,8.3326-4.4523,25.7706,25.7706,0,0,1,16.5027-.405,27.5442,27.5442,0,0,1,6.34,2.7814,1.073,1.073,0,0,0,1.4027-.2345l4.3227-5.33a1.0741,1.0741,0,0,0-.2413-1.5727,32.5714,32.5714,0,0,0-18.3031-5.2566,38.3325,38.3325,0,0,0-21.5325,6.6546,47.541,47.541,0,0,0-8.0735,7.0848,42.7317,42.7317,0,0,0-6.1126,8.6114,46.2793,46.2793,0,0,0-3.7592,9.3453,35.11,35.11,0,0,0-1.34,9.3741,25.2549,25.2549,0,0,0,1.3838,8.4813A20.6838,20.6838,0,0,0,15.1651,75.3947Z" style="fill: #343a40"/>
      <path id="type_PathItem_2" data-name="type &lt;PathItem&gt;" d="M65.673,72.3022c0,4.3956,1.8687,9.6359,10.7689,9.6359,4.202,0,9.1542-1.2795,14.739-3.8055l.27,2.0329a1.0736,1.0736,0,0,0,1.0649.9332h4.8263a1.0738,1.0738,0,0,0,1.0324-.7785l11.583-40.4155a1.0734,1.0734,0,0,0-1.0324-1.37h-6.8827a1.0728,1.0728,0,0,0-1.0324.7785L91.9982,70.77c-4.2859,1.8917-7.9224,2.85-10.814,2.85-4.0456,0-5.85-1.5455-5.85-5.011a14.5951,14.5951,0,0,1,.7134-4.1937l7.0506-24.51a1.0743,1.0743,0,0,0-1.0324-1.3713H75.1829a1.0738,1.0738,0,0,0-1.0324.778L67.2269,63.4411A33.2322,33.2322,0,0,0,65.673,72.3022Z" style="fill: #343a40"/>
      <path id="type_PathItem_3" data-name="type &lt;PathItem&gt;" d="M108.3215,80.6712a1.077,1.077,0,0,0,.8582.4275h6.8827a1.0733,1.0733,0,0,0,1.0324-.7785l11.8768-41.4647a1.0732,1.0732,0,0,0-1.0324-1.37h-6.8826a1.0727,1.0727,0,0,0-1.0324.7785L108.1473,79.7285A1.0749,1.0749,0,0,0,108.3215,80.6712Z" style="fill: #343a40"/>
      <path id="type_PathItem_4" data-name="type &lt;PathItem&gt;" d="M123.3648,29.3938h8.1417a1.0753,1.0753,0,0,0,1.0334-.7791l2.2663-7.932a1.0744,1.0744,0,0,0-1.0335-1.37H125.631a1.0753,1.0753,0,0,0-1.0334.779l-2.2663,7.932a1.0745,1.0745,0,0,0,1.0335,1.37Z" style="fill: #343a40"/>
      <path id="type_PathItem_5" data-name="type &lt;PathItem&gt;" d="M127.7137,80.6712a1.0767,1.0767,0,0,0,.8582.4275h6.8827a1.0728,1.0728,0,0,0,1.0324-.7785l18.1719-63.4141a1.0734,1.0734,0,0,0-1.0324-1.37h-6.8827a1.0728,1.0728,0,0,0-1.0324.7786L127.54,79.7285A1.0746,1.0746,0,0,0,127.7137,80.6712Z" style="fill: #343a40"/>
      <path id="type_CompoundPathItem_" data-name="type &lt;CompoundPathItem&gt;" d="M148.5715,60.21a28.811,28.811,0,0,0-1.26,7.9378,15.34,15.34,0,0,0,1.2506,6.3829,10.8972,10.8972,0,0,0,3.4487,4.3888A15.1554,15.1554,0,0,0,156.5726,81.2a17.9453,17.9453,0,0,0,5.2009.7386,28.652,28.652,0,0,0,12.074-2.9037l.1669,1.1442a1.0735,1.0735,0,0,0,1.0628.92h4.7843a1.0728,1.0728,0,0,0,1.0324-.7785l18.1719-63.4141a1.0734,1.0734,0,0,0-1.0324-1.37h-6.8827a1.0755,1.0755,0,0,0-1.0334.7791L183.5011,39.474a20.8307,20.8307,0,0,0-8.5079-1.7789,24.8026,24.8026,0,0,0-10.8748,2.4992,27.23,27.23,0,0,0-9.3325,7.7038,35.3789,35.3789,0,0,0-6.2144,12.3109Zm8.1071,5.4617a22.7022,22.7022,0,0,1,.9663-5.916,24.8173,24.8173,0,0,1,2.5516-6.0146,18.9427,18.9427,0,0,1,3.2693-4.1706,16.8445,16.8445,0,0,1,7.45-3.9371,16.9707,16.9707,0,0,1,3.5316-.3751,17.3,17.3,0,0,1,6.9823,1.4406L174.1392,72.159a20.989,20.989,0,0,1-8.5047,1.9646,12.1742,12.1742,0,0,1-3.1623-.4039,10.1786,10.1786,0,0,1-2.8842-1.3116,5.9264,5.9264,0,0,1-2.0889-2.517A9.8494,9.8494,0,0,1,156.6786,65.6712Z" style="fill: #343a40"/>
      <path id="type_CompoundPathItem_2" data-name="type &lt;CompoundPathItem&gt;" d="M246.5311,59.9588a27.0287,27.0287,0,0,0-1.1331,7.4751c0,4.5173,1.408,8.1082,4.1852,10.6725,2.752,2.5427,6.5344,3.8317,11.2421,3.8317A26.2228,26.2228,0,0,0,277.66,75.7808a32.1382,32.1382,0,0,0,10.5548-16.4893,26.4958,26.4958,0,0,0,1.09-7.1761c0-4.5577-1.4657-8.1418-4.3572-10.6526-2.8465-2.4724-6.6844-3.7257-11.4058-3.7257a25.888,25.888,0,0,0-16.71,6.0539A31.4957,31.4957,0,0,0,246.5311,59.9588Zm8.318,4.7051a19.5089,19.5089,0,0,1,.7974-5.2434,20.13,20.13,0,0,1,3.9428-7.5139,17.9052,17.9052,0,0,1,5.7538-4.6789,13.7054,13.7054,0,0,1,5.974-1.4663,8.309,8.309,0,0,1,6.0717,2.3618c1.63,1.5817,2.4226,3.78,2.4226,6.72a18.833,18.833,0,0,1-.7985,5.2046,20.1006,20.1006,0,0,1-6.294,10.0508,14.4718,14.4718,0,0,1-9.4595,3.815,7.7015,7.7015,0,0,1-6.1787-2.4872A9.8119,9.8119,0,0,1,254.8491,64.6639Z" style="fill: #343a40"/>
      <path id="type_PathItem_6" data-name="type &lt;PathItem&gt;" d="M359.8708,39.0984a1.0752,1.0752,0,0,0-.9454-.5639h-7.3443a1.074,1.074,0,0,0-.917.5151L331.891,69.8423l-.9757-30.2681a1.0732,1.0732,0,0,0-1.0734-1.04H323.253a1.074,1.074,0,0,0-.9233.5256L304.0508,69.8287l-1.0859-30.2581a1.0739,1.0739,0,0,0-1.0734-1.0361h-7.3443a1.0732,1.0732,0,0,0-1.0712,1.152l2.9377,40.4155a1.0741,1.0741,0,0,0,1.0713.9967h6.7567a1.0733,1.0733,0,0,0,.917-.5146l18.1772-29.7624,1.236,29.2478a1.0739,1.0739,0,0,0,1.0733,1.0292h6.7568a1.0735,1.0735,0,0,0,.8981-.4847l26.5234-40.4155A1.0731,1.0731,0,0,0,359.8708,39.0984Z" style="fill: #343a40"/>
      <path id="type_PathItem_7" data-name="type &lt;PathItem&gt;" d="M204.47,27.533c.3473.2319,8.6443,5.6169,23.0832,2.55,6.9553-1.0917,10.0765,1.7635,11.1737,3.1956l-13.3109,46.45a1.0734,1.0734,0,0,0,1.0324,1.37h6.8827a1.0728,1.0728,0,0,0,1.0324-.7785L256.4218,3.3461a1.0732,1.0732,0,0,0-1.0324-1.37h-6.8827a1.0642,1.0642,0,0,0-.9249.5508C240.1535-1.72,231-.0441,224.4132,3.37c-.0777.04-.1522.0823-.2256.128-5.738,3.5857-13.118,2.335-13.2271,2.3151a3.2242,3.2242,0,0,0-3.774,3.5851,22.1627,22.1627,0,0,0,2.5779,7.8738,36.5068,36.5068,0,0,0-6.1325,5.71,3.2239,3.2239,0,0,0,.8383,4.5509Z" style="fill: #343a40"/>
      <path id="type_PathItem_8" data-name="type &lt;PathItem&gt;" d="M220.0506,64.079l1.5528-5.4139a1.074,1.074,0,0,0-1.0324-1.3708H208.4382l.99-3.4818c.1857-.6138.3882-1.2013.6022-1.7464v-.001a12.3615,12.3615,0,0,1,1.1562-2.067,10.1773,10.1773,0,0,1,1.877-2.165,9.3673,9.3673,0,0,1,2.8034-1.53c2.5716-.9563,5.87-.9112,9.8729.3725a1.0737,1.0737,0,0,0,1.2957-.5551l2.5181-5.204a1.0759,1.0759,0,0,0-.6274-1.4873c-6.5627-2.187-12.6144-2.3208-17.8226.0409a17.593,17.593,0,0,0-6.4724,4.9979,25.534,25.534,0,0,0-4.3132,9.1507l-1.0744,3.6759h-5.0288a1.0738,1.0738,0,0,0-1.0324.778L191.63,63.4862a1.0741,1.0741,0,0,0,1.0324,1.3708h4.4087L186.1545,102.97a15.245,15.245,0,0,1-.5288,1.5491,10.8588,10.8588,0,0,1-1.0848,1.8508,8.6032,8.6032,0,0,1-1.79,1.9227,9.7081,9.7081,0,0,1-2.774,1.385c-2.5831.8871-5.9688.821-9.9085-.31a1.0746,1.0746,0,0,0-1.2612.5582l-2.4761,5.0362a1.0743,1.0743,0,0,0,.6243,1.4935,30.5956,30.5956,0,0,0,9.6567,1.65,20.3743,20.3743,0,0,0,8.1271-1.62,17.5418,17.5418,0,0,0,6.3675-4.6275,22.774,22.774,0,0,0,4.1642-8.59l11.0018-38.41h12.7455A1.0738,1.0738,0,0,0,220.0506,64.079Z" style="fill: #343a40"/>
      <path id="type_PathItem_9" data-name="type &lt;PathItem&gt;" d="M178.3685,98.2271l1.9074-6.6594a1.0734,1.0734,0,0,0-1.0324-1.37H18.276c-13.9721,0-18.173,11.39-18.214,11.5045a1.0749,1.0749,0,0,0,1.5392,1.2958,37.6808,37.6808,0,0,1,16.6737-3.9922H177.3361A1.0734,1.0734,0,0,0,178.3685,98.2271Z" style="fill: #343a40"/>
      <path id="type_PathItem_10" data-name="type &lt;PathItem&gt;" d="M352.026,86.2052a37.3963,37.3963,0,0,1-16.6,3.9923H209.8043a1.0733,1.0733,0,0,0-1.0324.7785l-1.9075,6.6593a1.0735,1.0735,0,0,0,1.0324,1.37H335.4247c13.9185,0,18.1016-11.3918,18.1425-11.5067a1.075,1.075,0,0,0-1.5412-1.2937Z" style="fill: #343a40"/>
      <path id="type_PathItem_11" data-name="type &lt;PathItem&gt;" d="M214.5959,12.4863A25.4144,25.4144,0,0,0,227.4841,9.04c2.2039-1.1226,11.3591-5.2368,18.2019-.0452l-4.9889,17.41a17.0945,17.0945,0,0,0-10.1546-3.015,25.7854,25.7854,0,0,0-4.0908.3415c-.0545.0089-.1091.0189-.1636.03a30.3863,30.3863,0,0,1-14.2742-.0162c1.4374-1.1967,3.0772-2.4615,4.3509-3.3879a3.2237,3.2237,0,0,0-.1783-5.3342S214.2937,13.81,214.5959,12.4863Z" style="fill: #f26b21"/>
    </g>
  </g>
</svg>
