<svg height='100px' width='100px'  fill="#FFFFFF" xmlns="http://www.w3.org/2000/svg" xmlns:xlink="http://www.w3.org/1999/xlink" version="1.1" x="0px" y="0px" viewBox="0 0 300 300" style="enable-background:new 0 0 300 300;" xml:space="preserve"><path d="M84.9,216c-20.9,5.7-33.1,27.3-27.4,48s27.2,33.2,48.1,27.5s33.1-27.3,27.4-48c-2.4-8.8-7.6-16-14.4-21.1l39-76.5  c5.2,1.4,10.8,1.5,16.3-0.1c4.9-1.3,9.3-3.8,12.8-7l42.5,30.3c-1.9,4.8-2.2,10.3-0.8,15.6c3.7,13.5,17.7,21.5,31.2,17.8  s21.5-17.7,17.8-31.2s-17.7-21.5-31.2-17.8c-3.5,1-6.8,2.7-9.4,5l-42.4-30.4c2.8-6.3,3.5-13.6,1.5-20.8c-0.6-2.2-1.5-4.3-2.5-6.3  l37.3-31c8.2,6.6,19.2,9.3,30.1,6.4c17.9-4.9,28.6-23.5,23.6-41.4C279.6,17.1,261,6.4,243,11.3s-28.6,23.5-23.6,41.4  c0.7,2.6,1.7,5,2.9,7.2L185,91.1c-7.6-5.8-17.7-8.3-27.6-5.6c-5.8,1.6-10.8,4.7-14.6,8.8L99.4,68.2c3.7-8.8,4.5-18.7,1.8-28.6  c-6.4-23.5-30.8-37.4-54.4-31S9.5,39.5,15.9,63s30.8,37.4,54.4,31c9.2-2.5,16.8-7.7,22.4-14.6l43.5,26.1c-2,5.8-2.3,12.2-0.6,18.4  c1.8,6.5,5.6,12.1,10.4,16l-39,76.5C99.9,214.3,92.3,214,84.9,216z"></path></svg>