<svg xmlns="http://www.w3.org/2000/svg" xmlns:xlink="http://www.w3.org/1999/xlink" width="100" height="100" viewBox="0 0 100 100"><g transform="translate(50 50) scale(0.69 0.69) rotate(180) translate(-50 -50)" style="fill:#FFFFFF"><svg fill="#FFFFFF" xmlns:x="http://ns.adobe.com/Extensibility/1.0/" xmlns:i="http://ns.adobe.com/AdobeIllustrator/10.0/" xmlns:graph="http://ns.adobe.com/Graphs/1.0/" xmlns="http://www.w3.org/2000/svg" xmlns:xlink="http://www.w3.org/1999/xlink" version="1.1" x="0px" y="0px" viewBox="0 0 100 100" style="enable-background:new 0 0 100 100;" xml:space="preserve"><g><g i:extraneous="self"><g><path d="M97.5,50C97.5,23.8,76.2,2.5,50,2.5S2.5,23.8,2.5,50S23.8,97.5,50,97.5S97.5,76.2,97.5,50z M9.3,50     C9.3,27.6,27.6,9.3,50,9.3S90.7,27.6,90.7,50S72.4,90.7,50,90.7S9.3,72.4,9.3,50z"></path><polygon points="43,27.4 38.2,32.2 55.9,50 38.2,67.8 43,72.6 65.6,50    "></polygon></g></g></g></svg></g></svg>