<svg height='100px' width='100px'  fill="#FFFFFF" xmlns="http://www.w3.org/2000/svg" xmlns:xlink="http://www.w3.org/1999/xlink" xml:space="preserve" version="1.1" style="shape-rendering:geometricPrecision;text-rendering:geometricPrecision;image-rendering:optimizeQuality;" viewBox="0 0 423.34 474.78" x="0px" y="0px" fill-rule="evenodd" clip-rule="evenodd"><defs><style type="text/css">
   
    .fil0 {fill:#FFFFFF}
   
  </style></defs><g><path class="fil0" d="M45.84 51.44l17.59 0 0 42.49c0,14.07 11.46,25.53 25.53,25.53l26.46 0c14.07,0 25.53,-11.46 25.53,-25.53l0 -42.49 141.43 0 0 42.49c0,14.07 11.46,25.53 25.53,25.53l26.46 0c14.07,0 25.53,-11.46 25.53,-25.53l0 -42.49 17.59 0c25.22,0 45.84,20.62 45.84,45.84l0 331.66c0,25.22 -20.62,45.84 -45.84,45.84l-331.66 0c-25.22,0 -45.84,-20.62 -45.84,-45.84l0 -331.66c0,-25.22 20.62,-45.84 45.84,-45.84zm352.11 127l0 250.49c0,11.25 -9.2,20.45 -20.45,20.45l-331.66 0c-11.25,0 -20.45,-9.2 -20.45,-20.45l0 -250.49 372.56 0z"></path><path class="fil0" d="M74.95 215.02l35.62 0c1.86,0 3.38,1.52 3.38,3.38l0 35.62c0,1.86 -1.52,3.38 -3.38,3.38l-35.62 0c-1.86,0 -3.38,-1.52 -3.38,-3.38l0 -35.62c0,-1.86 1.52,-3.38 3.38,-3.38z"></path><path class="fil0" d="M154.22 215.02l35.62 0c1.86,0 3.38,1.52 3.38,3.38l0 35.62c0,1.86 -1.52,3.38 -3.38,3.38l-35.62 0c-1.86,0 -3.38,-1.52 -3.38,-3.38l0 -35.62c0,-1.86 1.52,-3.38 3.38,-3.38z"></path><path class="fil0" d="M233.49 215.02l35.63 0c1.86,0 3.38,1.52 3.38,3.38l0 35.62c0,1.86 -1.52,3.38 -3.38,3.38l-35.63 0c-1.86,0 -3.38,-1.52 -3.38,-3.38l0 -35.62c0,-1.86 1.52,-3.38 3.38,-3.38z"></path><path class="fil0" d="M312.76 215.02l35.62 0c1.86,0 3.38,1.52 3.38,3.38l0 35.62c0,1.86 -1.52,3.38 -3.38,3.38l-35.62 0c-1.86,0 -3.38,-1.52 -3.38,-3.38l0 -35.62c0,-1.86 1.52,-3.38 3.38,-3.38z"></path><path class="fil0" d="M74.95 292.72l35.62 0c1.86,0 3.38,1.52 3.38,3.38l0 35.62c0,1.86 -1.52,3.38 -3.38,3.38l-35.62 0c-1.86,0 -3.38,-1.52 -3.38,-3.38l0 -35.62c0,-1.86 1.52,-3.38 3.38,-3.38z"></path><path class="fil0" d="M74.95 370.42l35.62 0c1.86,0 3.38,1.52 3.38,3.38l0 35.62c0,1.86 -1.52,3.38 -3.38,3.38l-35.62 0c-1.86,0 -3.38,-1.52 -3.38,-3.38l0 -35.62c0,-1.86 1.52,-3.38 3.38,-3.38z"></path><path class="fil0" d="M154.22 292.72l35.62 0c1.86,0 3.38,1.52 3.38,3.38l0 35.62c0,1.86 -1.52,3.38 -3.38,3.38l-35.62 0c-1.86,0 -3.38,-1.52 -3.38,-3.38l0 -35.62c0,-1.86 1.52,-3.38 3.38,-3.38z"></path><path class="fil0" d="M154.22 370.42l35.62 0c1.86,0 3.38,1.52 3.38,3.38l0 35.62c0,1.86 -1.52,3.38 -3.38,3.38l-35.62 0c-1.86,0 -3.38,-1.52 -3.38,-3.38l0 -35.62c0,-1.86 1.52,-3.38 3.38,-3.38z"></path><path class="fil0" d="M233.49 292.72l35.63 0c1.86,0 3.38,1.52 3.38,3.38l0 35.62c0,1.86 -1.52,3.38 -3.38,3.38l-35.63 0c-1.86,0 -3.38,-1.52 -3.38,-3.38l0 -35.62c0,-1.86 1.52,-3.38 3.38,-3.38z"></path><path class="fil0" d="M233.49 370.42l35.63 0c1.86,0 3.38,1.52 3.38,3.38l0 35.62c0,1.86 -1.52,3.38 -3.38,3.38l-35.63 0c-1.86,0 -3.38,-1.52 -3.38,-3.38l0 -35.62c0,-1.86 1.52,-3.38 3.38,-3.38z"></path><path class="fil0" d="M312.76 292.72l35.62 0c1.86,0 3.38,1.52 3.38,3.38l0 35.62c0,1.86 -1.52,3.38 -3.38,3.38l-35.62 0c-1.86,0 -3.38,-1.52 -3.38,-3.38l0 -35.62c0,-1.86 1.52,-3.38 3.38,-3.38z"></path><path class="fil0" d="M312.76 370.42l35.62 0c1.86,0 3.38,1.52 3.38,3.38l0 35.62c0,1.86 -1.52,3.38 -3.38,3.38l-35.62 0c-1.86,0 -3.38,-1.52 -3.38,-3.38l0 -35.62c0,-1.86 1.52,-3.38 3.38,-3.38z"></path><path class="fil0" d="M88.96 0l26.46 0c4.73,0 8.6,3.87 8.6,8.6l0 85.33c0,4.73 -3.87,8.6 -8.6,8.6l-26.46 0c-4.73,0 -8.6,-3.87 -8.6,-8.6l0 -85.33c0,-4.73 3.87,-8.6 8.6,-8.6z"></path><path class="fil0" d="M307.92 0l26.46 0c4.73,0 8.6,3.87 8.6,8.6l0 85.33c0,4.73 -3.87,8.6 -8.6,8.6l-26.46 0c-4.73,0 -8.6,-3.87 -8.6,-8.6l0 -85.33c0,-4.73 3.87,-8.6 8.6,-8.6z"></path></g></svg>