<svg height='100px' width='100px'  fill="#FFFFFF" xmlns="http://www.w3.org/2000/svg" xmlns:xlink="http://www.w3.org/1999/xlink" version="1.1" x="0px" y="0px" viewBox="0 0 100 100" style="enable-background:new 0 0 100 100;" xml:space="preserve"><path d="M85.4,31.8L55.9,7.1c-0.4-0.4-1-0.6-1.6-0.6H22.8c-5,0-9.1,4.7-9.1,10.5v66c0,5.8,4.1,10.5,9.1,10.5h54.3  c5,0,9.1-4.7,9.1-10.5V33.7C86.2,32.9,85.9,32.2,85.4,31.8z M77.2,88.5H22.8c-2.2,0-4.1-2.5-4.1-5.5V17c0-3,1.9-5.5,4.1-5.5h29.6  v23.7h28.8V83C81.2,86,79.4,88.5,77.2,88.5z"></path><path d="M74.5,62.1h-49c-1.4,0-2.5,1.1-2.5,2.5c0,1.4,1.1,2.5,2.5,2.5h49c1.4,0,2.5-1.1,2.5-2.5S75.9,62.1,74.5,62.1z"></path><path d="M25.5,54.7h49c1.4,0,2.5-1.1,2.5-2.5s-1.1-2.5-2.5-2.5h-49c-1.4,0-2.5,1.1-2.5,2.5S24.1,54.7,25.5,54.7z"></path><path d="M50,74.5H25.5c-1.4,0-2.5,1.1-2.5,2.5s1.1,2.5,2.5,2.5H50c1.4,0,2.5-1.1,2.5-2.5S51.4,74.5,50,74.5z"></path><g><circle cx="36.1" cy="24.5" r="4.6"></circle><path d="M45.6,16.8H26.5c-2,0-3.7,1.7-3.7,3.7v19.2c0,2,1.7,3.7,3.7,3.7h19.2c1,0,2-0.4,2.7-1.1c0.7-0.7,1-1.6,1-2.6V20.5   C49.3,18.5,47.7,16.8,45.6,16.8z M36.1,29.3c-3.4,0-6.2,2.8-6.2,6.2v4.8h-3.4c-0.3,0-0.6-0.2-0.6-0.6V20.5c0-0.3,0.2-0.6,0.6-0.6   h19.2c0.3,0,0.6,0.2,0.6,0.6v19.2c0,0.3-0.2,0.6-0.6,0.6h-3.4v-4.8C42.2,32.1,39.5,29.3,36.1,29.3z"></path></g></svg>