<svg height='100px' width='100px'  fill="#FFFFFF" xmlns:x="http://ns.adobe.com/Extensibility/1.0/" xmlns:i="http://ns.adobe.com/AdobeIllustrator/10.0/" xmlns:graph="http://ns.adobe.com/Graphs/1.0/" xmlns="http://www.w3.org/2000/svg" xmlns:xlink="http://www.w3.org/1999/xlink" version="1.1" x="0px" y="0px" viewBox="0 0 100 100" enable-background="new 0 0 100 100" xml:space="preserve"><metadata><sfw xmlns="http://ns.adobe.com/SaveForWeb/1.0/"><slices></slices><sliceSourceBounds width="1449" height="1446.4" y="-1446.7" x="0.5" bottomLeftOrigin="true"></sliceSourceBounds></sfw></metadata><path d="M89.3,12.4H10.7c-4,0-7.2,3.2-7.2,7.2v60.9c0,4,3.2,7.2,7.2,7.2h78.5c4,0,7.2-3.2,7.2-7.2V19.5  C96.4,15.6,93.2,12.4,89.3,12.4z M10.7,17.4h78.5c1.2,0,2.2,1,2.2,2.2v10.4H8.6V19.5C8.6,18.3,9.5,17.4,10.7,17.4z M89.3,82.6H10.7  c-1.2,0-2.2-1-2.2-2.2V34.9h82.9v45.5C91.4,81.7,90.5,82.6,89.3,82.6z M85.4,43.1c0,1.4-1.1,2.5-2.5,2.5H50c-1.4,0-2.5-1.1-2.5-2.5  s1.1-2.5,2.5-2.5h32.9C84.3,40.6,85.4,41.7,85.4,43.1z M47.5,53.7c0-1.4,1.1-2.5,2.5-2.5h15.6c1.4,0,2.5,1.1,2.5,2.5  s-1.1,2.5-2.5,2.5H50C48.6,56.2,47.5,55,47.5,53.7z M85.4,64.2c0,1.4-1.1,2.5-2.5,2.5H50c-1.4,0-2.5-1.1-2.5-2.5s1.1-2.5,2.5-2.5  h32.9C84.3,61.7,85.4,62.8,85.4,64.2z M85.4,74.7c0,1.4-1.1,2.5-2.5,2.5H17.1c-1.4,0-2.5-1.1-2.5-2.5s1.1-2.5,2.5-2.5h65.8  C84.3,72.2,85.4,73.4,85.4,74.7z M18,66.5h22.8c1.4,0,2.5-1.1,2.5-2.5V43.1c0-1.4-1.1-2.5-2.5-2.5H18c-1.4,0-2.5,1.1-2.5,2.5V64  C15.5,65.3,16.6,66.5,18,66.5z M20.5,45.6h17.8v15.8H20.5V45.6z M21.9,23.6c0-1.7,1.4-3,3-3c1.7,0,3,1.4,3,3c0,1.7-1.4,3-3,3  C23.3,26.7,21.9,25.3,21.9,23.6z M31.9,23.6c0-1.7,1.4-3,3-3c1.7,0,3,1.4,3,3c0,1.7-1.4,3-3,3C33.3,26.7,31.9,25.3,31.9,23.6z   M11.9,23.6c0-1.7,1.4-3,3-3s3,1.4,3,3c0,1.7-1.4,3-3,3S11.9,25.3,11.9,23.6z"></path></svg>