<svg height='100px' width='100px'  fill="#FFFFFF" xmlns="http://www.w3.org/2000/svg" data-name="Layer 1" viewBox="0 0 100 100" x="0px" y="0px"><title>Essential, interface_25</title><path d="M62.68,37.32a2.83,2.83,0,0,0-4,0L50,46l-8.7-8.7a2.81,2.81,0,0,0-4,4L46,50l-8.7,8.7a2.83,2.83,0,0,0,0,4,2.8,2.8,0,0,0,2,.82,2.84,2.84,0,0,0,2-.82L50,54l8.7,8.7a2.82,2.82,0,0,0,4,0,2.83,2.83,0,0,0,0-4L54,50l8.7-8.7A2.83,2.83,0,0,0,62.68,37.32Z"></path><path d="M50,5A45,45,0,1,0,95,50,45.05,45.05,0,0,0,50,5Zm0,84.38A39.38,39.38,0,1,1,89.38,50,39.42,39.42,0,0,1,50,89.38Z"></path></svg>