<svg height='100px' width='100px'  fill="#FFFFFF" xmlns:dc="http://purl.org/dc/elements/1.1/" xmlns:cc="http://creativecommons.org/ns#" xmlns:rdf="http://www.w3.org/1999/02/22-rdf-syntax-ns#" xmlns:svg="http://www.w3.org/2000/svg" xmlns="http://www.w3.org/2000/svg" xmlns:sodipodi="http://sodipodi.sourceforge.net/DTD/sodipodi-0.dtd" xmlns:inkscape="http://www.inkscape.org/namespaces/inkscape" viewBox="0 0 8.4666667 8.4666669" version="1.1" x="0px" y="0px"><svg:g><svg:path style="color:#000000;font-style:normal;font-variant:normal;font-weight:normal;font-stretch:normal;font-size:medium;line-height:normal;font-family:sans-serif;font-variant-ligatures:normal;font-variant-position:normal;font-variant-caps:normal;font-variant-numeric:normal;font-variant-alternates:normal;font-feature-settings:normal;text-indent:0;text-align:start;text-decoration:none;text-decoration-line:none;text-decoration-style:solid;text-decoration-color:#000000;letter-spacing:normal;word-spacing:normal;text-transform:none;writing-mode:lr-tb;direction:ltr;text-orientation:mixed;dominant-baseline:auto;baseline-shift:baseline;text-anchor:start;white-space:normal;shape-padding:0;clip-rule:nonzero;display:inline;overflow:visible;visibility:visible;opacity:1;isolation:auto;mix-blend-mode:normal;color-interpolation:sRGB;color-interpolation-filters:linearRGB;solid-color:#000000;solid-opacity:1;vector-effect:none;fill:#FFFFFF;fill-opacity:1;fill-rule:nonzero;stroke:none;stroke-width:0.52916664;stroke-linecap:round;stroke-linejoin:round;stroke-miterlimit:4;stroke-dasharray:none;stroke-dashoffset:0;stroke-opacity:1;color-rendering:auto;image-rendering:auto;shape-rendering:auto;text-rendering:auto;enable-background:accumulate" d="m 0.26380633,0.66120033 a 0.26460979,0.26460979 0 0 0 -0.26406399928,0.265617 V 2.6786483 7.5398503 A 0.26460979,0.26460979 0 0 0 0.26380633,7.8054663 H 8.2013063 a 0.26460979,0.26460979 0 0 0 0.265618,-0.265616 V 2.6786483 0.92681733 a 0.26460979,0.26460979 0 0 0 -0.265618,-0.265617 z m 0.265618,0.52916597 H 7.9372413 v 1.224732 H 0.52942433 Z m 0.74414097,0.2651 a 0.34726562,0.34726562 0 0 0 -0.34726597,0.347266 0.34726562,0.34726562 0 0 0 0.34726597,0.347266 0.34726562,0.34726562 0 0 0 0.347265,-0.347266 0.34726562,0.34726562 0 0 0 -0.347265,-0.347266 z m 0.992187,0 a 0.34726562,0.34726562 0 0 0 -0.347265,0.347266 0.34726562,0.34726562 0 0 0 0.347265,0.347266 0.34726562,0.34726562 0 0 0 0.347266,-0.347266 0.34726562,0.34726562 0 0 0 -0.347266,-0.347266 z m 0.992188,0 a 0.34726562,0.34726562 0 0 0 -0.347266,0.347266 0.34726562,0.34726562 0 0 0 0.347266,0.347266 0.34726562,0.34726562 0 0 0 0.347265,-0.347266 0.34726562,0.34726562 0 0 0 -0.347265,-0.347266 z M 0.52942433,2.9442643 H 7.9372413 v 4.332036 H 0.52942433 Z m 2.71301397,1.183391 a 0.26460979,0.26460979 0 0 0 -0.181901,0.0801 l -0.716754,0.715201 a 0.26460979,0.26460979 0 0 0 0,0.374654 l 0.716754,0.715202 a 0.26460979,0.26460979 0 1 0 0.373102,-0.375171 l -0.527616,-0.5271 0.527616,-0.529683 a 0.26460979,0.26460979 0 0 0 -0.191201,-0.453202 z m 1.974556,0 a 0.26460979,0.26460979 0 0 0 -0.18397,0.453202 l 0.527616,0.529683 -0.527616,0.5271 a 0.26460979,0.26460979 0 1 0 0.373105,0.375171 l 0.716751,-0.715202 a 0.26460979,0.26460979 0 0 0 0,-0.374654 l -0.716751,-0.715202 a 0.26460979,0.26460979 0 0 0 -0.189135,-0.0801 z m -0.786,0.02532 a 0.26460979,0.26460979 0 0 0 -0.02481,5.17e-4 0.26460979,0.26460979 0 0 0 -0.243911,0.198954 l -0.369483,1.380795 a 0.2650539,0.2650539 0 1 0 0.512114,0.136942 l 0.368969,-1.380794 a 0.26460979,0.26460979 0 0 0 -0.242879,-0.336414 z"></svg:path></svg:g></svg>