<svg height='100px' width='100px'  fill="#FFFFFF" xmlns="http://www.w3.org/2000/svg" xmlns:xlink="http://www.w3.org/1999/xlink" version="1.1" x="0px" y="0px" viewBox="0 0 500 500" enable-background="new 0 0 500 500" xml:space="preserve"><g><g><path d="M361.4,28.2H138.8c-8.1,0-14.8,6.6-14.8,14.8v414.1c0,8.1,6.6,14.8,14.8,14.8h222.5    c8.2,0,14.8-6.6,14.8-14.8V43C376.1,34.8,369.5,28.2,361.4,28.2z M250,460.5c-12.7,0-23.1-10.3-23.1-23.1    c0-12.7,10.3-23.1,23.1-23.1s23.1,10.3,23.1,23.1C273.1,450.1,262.7,460.5,250,460.5z M360.5,403.6H139.5V57.9h220.9V403.6z"></path><g><path d="M360.5,398.6c-24.9,0-49.7,0-74.6,0c-39.7,0-79.3,0-119,0c-9.1,0-18.2,0-27.3,0c1.7,1.7,3.3,3.3,5,5     c0-11.5,0-23,0-34.5c0-27.4,0-54.9,0-82.3c0-33.4,0-66.7,0-100.1c0-28.7,0-57.4,0-86.1c0-9.5,0-19,0-28.5c0-4.3,0.8-9.4,0-13.7     c0-0.2,0-0.4,0-0.6c-1.7,1.7-3.3,3.3-5,5c24.9,0,49.7,0,74.6,0c39.7,0,79.3,0,119,0c9.1,0,18.2,0,27.3,0c-1.7-1.7-3.3-3.3-5-5     c0,11.5,0,23,0,34.5c0,27.4,0,54.9,0,82.3c0,33.4,0,66.7,0,100.1c0,28.7,0,57.4,0,86.1c0,13.9-1,28.2,0,42.1c0,0.2,0,0.4,0,0.6     c0,6.4,10,6.4,10,0c0-11.5,0-23,0-34.5c0-27.4,0-54.9,0-82.3c0-33.4,0-66.7,0-100.1c0-28.7,0-57.4,0-86.1c0-13.9,1-28.2,0-42.1     c0-0.2,0-0.4,0-0.6c0-2.7-2.3-5-5-5c-24.9,0-49.7,0-74.6,0c-39.7,0-79.3,0-119,0c-9.1,0-18.2,0-27.3,0c-2.7,0-5,2.3-5,5     c0,11.5,0,23,0,34.5c0,27.4,0,54.9,0,82.3c0,33.4,0,66.7,0,100.1c0,28.7,0,57.4,0,86.1c0,13.9-1,28.2,0,42.1c0,0.2,0,0.4,0,0.6     c0,2.7,2.3,5,5,5c24.9,0,49.7,0,74.6,0c39.7,0,79.3,0,119,0c9.1,0,18.2,0,27.3,0C366.9,408.6,366.9,398.6,360.5,398.6z"></path><path d="M250,455.5c-9.9-0.3-18.1-8-18.1-18.1c0-9.9,8.2-18,18.1-18.1c9.9,0,18.1,8.2,18.1,18.1     C268.1,447.5,259.9,455.2,250,455.5c-6.4,0.2-6.4,10.2,0,10c11.7-0.3,22.2-7.2,26.3-18.4c4.1-11,0.7-23.8-8.3-31.2     c-19.9-16.5-50.3,1.5-45.5,26.9c2.5,13.3,14.3,22.4,27.5,22.7C256.4,465.6,256.4,455.6,250,455.5z"></path><path d="M361.4,23.2c-46.7,0-93.3,0-140,0c-24.6,0-49.2,0-73.8,0c-6.8,0-13.8-0.7-19.8,3.4     c-7,4.7-8.7,12.2-8.7,20c0,41.5,0,82.9,0,124.4c0,62.9,0,125.8,0,188.7c0,23.3,0,46.6,0,69.8c0,9.2-0.4,18.4,0,27.6     c0.4,11.1,8.7,19.3,19.8,19.8c1.2,0,2.4,0,3.5,0c8.1,0,16.3,0,24.4,0c29.4,0,58.9,0,88.3,0c28.3,0,56.6,0,84.9,0     c6.7,0,13.4,0.1,20.1,0c11.7-0.1,20.7-8.1,21.1-20.1c0.4-10.9,0-21.9,0-32.8c0-24.4,0-48.7,0-73.1c0-63.1,0-126.1,0-189.2     c0-39,0.2-78,0-117C381.1,33.1,373.5,23.7,361.4,23.2c-6.4-0.3-6.4,9.7,0,10c8.4,0.4,9.8,7.2,9.8,13.8c0,5.5,0,11.1,0,16.6     c0,21.1,0,42.2,0,63.4c0,60.8,0,121.5,0,182.3c0,45.7,0,91.4,0,137.1c0,3.4,0.2,6.9,0,10.4c-0.4,7.9-6.3,10.2-13,10.2     c-20.8,0-41.5,0-62.3,0c-51.3,0-102.7,0-154,0c-6.6,0-12.5-2.6-12.8-10.3c-0.1-3.5,0-7.1,0-10.6c0-18,0-35.9,0-53.9     c0-59.6,0-119.2,0-178.8c0-50,0-100.1,0-150.1c0-5.5,0-10.9,0-16.4c0-6.5,1.6-13.1,9.8-13.5c14.7-0.9,29.8,0,44.6,0     c55.5,0,111,0,166.5,0c3.8,0,7.7,0,11.5,0C367.8,33.2,367.8,23.2,361.4,23.2z"></path></g></g></g></svg>