<?xml version="1.0" standalone="no"?>
<!DOCTYPE svg PUBLIC "-//W3C//DTD SVG 20010904//EN"
 "http://www.w3.org/TR/2001/REC-SVG-20010904/DTD/svg10.dtd">
<svg version="1.0" xmlns="http://www.w3.org/2000/svg"
 width="260.000000pt" height="260.000000pt" viewBox="0 0 260.000000 260.000000"
 preserveAspectRatio="xMidYMid meet">
<metadata>
Created by potrace 1.11, written by Peter Selinger 2001-2013
</metadata>
<g transform="translate(0.000000,260.000000) scale(0.100000,-0.100000)"
fill="#000000" stroke="none">
<path d="M1409 2296 c-2 -2 -20 -6 -39 -9 -61 -10 -113 -28 -195 -69 -103 -51
-177 -68 -284 -64 -98 3 -117 -3 -136 -46 -14 -36 -2 -107 34 -190 20 -47 20
-48 1 -61 -37 -26 -118 -104 -129 -125 -16 -30 -14 -78 5 -97 23 -23 80 -50
144 -69 113 -34 236 -39 395 -16 137 20 121 19 182 5 52 -12 119 -49 127 -71
2 -6 -70 -268 -159 -583 -90 -315 -161 -579 -158 -587 7 -19 196 -21 210 -2 5
7 60 193 123 413 62 220 146 517 187 660 41 143 81 283 88 310 8 28 30 106 50
175 20 69 45 157 56 197 10 39 23 83 29 98 5 14 10 40 10 56 l0 30 -117 -1
c-101 -1 -126 2 -173 21 -40 16 -81 23 -151 25 -53 2 -98 2 -100 0z m211 -178
c76 -34 75 -23 21 -213 -27 -93 -54 -189 -60 -213 l-12 -43 -33 20 c-18 11
-61 28 -97 37 -88 23 -161 21 -304 -5 -48 -9 -198 -5 -239 7 l-29 8 65 51 c87
69 95 113 28 169 -47 40 -39 50 50 63 91 14 158 35 245 80 33 16 85 37 115 45
68 18 202 15 250 -6z"/>
</g>
</svg>
